{"asset":{"generator":"Khronos glTF Spline I/O v0.0.1","version":"2.0"},"scenes":[{"nodes":[0]}],"nodes":[{"name":"","children":[1,2,3],"matrix":[0.01,0,0,0,0,0.01,0,0,0,0,0.01,0,0,0,0,1]},{"name":"","camera":0,"translation":[-29.51499999999998,38.34000000000007,1000],"rotation":[-3.197442310920451e-17,0,0,1]},{"name":"Directional Light","translation":[200,300,300],"rotation":[-0.4062840720729887,0.12301291902225084,-0.2623788760260691,0.8665785595944042],"extensions":{"KHR_lights_punctual":{"light":0}}},{"name":"github","matrix":[-0.2508251093095736,3.071721672617543e-17,3.7617741142426274e-33,0,3.071721672617543e-17,0.2508251093095736,3.071721672617543e-17,0,0,-3.071721672617543e-17,0.2508251093095736,0,-1,1,0,1],"children":[4]},{"name":"Shape 0","matrix":[1,0,0,0,0,1,0,0,0,0,1,0,0,0,0,1],"mesh":0}],"cameras":[{"type":"orthographic","orthographic":{"xmag":1516,"ymag":1001,"zfar":100000,"znear":-100000}}],"meshes":[{"primitives":[{"attributes":{"POSITION":1,"NORMAL":2,"TEXCOORD_0":3},"indices":0}]}],"buffers":[{"uri":"data:application/octet-stream;base64,","byteLength":202632}],"bufferViews":[{"buffer":0,"byteOffset":0,"byteLength":28488,"target":34963},{"buffer":0,"byteOffset":28488,"byteLength":58048,"target":34962},{"buffer":0,"byteOffset":86536,"byteLength":58048,"target":34962},{"buffer":0,"byteOffset":144584,"byteLength":58048,"target":34962}],"accessors":[{"bufferView":0,"byteOffset":0,"componentType":5125,"count":7122,"type":"SCALAR","min":[0],"max":[1813]},{"bufferView":1,"byteOffset":0,"componentType":5126,"count":1814,"type":"VEC3","min":[0,-998.6696166992188,0],"max":[1024,0,119]},{"bufferView":2,"byteOffset":0,"componentType":5126,"count":1814,"type":"VEC3","min":[-0.9999997019767761,-0.9999925494194031,-1],"max":[0.9999992847442627,0.9988061785697937,1]},{"bufferView":3,"byteOffset":0,"componentType":5126,"count":1814,"type":"VEC2","min":[0,0],"max":[1,1]}],"extensions":{"KHR_lights_punctual":{"lights":[{"type":"directional","name":"Directional Light","color":[1,1,1],"intensity":0.7}]}},"extensionsUsed":["KHR_lights_punctual"]}