<svg width="500" height="500" viewBox="0 0 500 500" fill="none" xmlns="http://www.w3.org/2000/svg">
<rect x="203" y="338" width="96" height="35" fill="black"/>
<path fill-rule="evenodd" clip-rule="evenodd" d="M227.497 384C212.434 383.993 204.634 383.856 198.591 380.836C192.779 377.933 188.068 373.221 185.164 367.409C184.356 365.792 183.754 364.048 183.306 362.073C189.587 347.315 200.585 335.132 214.696 327.487L202.729 306.76C202.054 305.598 202.447 304.122 203.609 303.447C204.771 302.771 206.247 303.164 206.922 304.326L219.046 325.32C228.296 321.096 238.708 318.741 249.906 318.741C261.103 318.741 271.515 321.096 280.765 325.32L292.889 304.326C293.548 303.164 295.04 302.771 296.187 303.447C297.333 304.122 297.741 305.598 297.066 306.76L285.099 327.487C299.512 335.289 310.673 347.818 316.887 362.986C316.467 364.592 315.932 366.046 315.251 367.409C312.347 373.221 307.635 377.933 301.824 380.836C295.78 383.856 287.98 383.993 272.918 384H227.497ZM228.302 349.846C228.336 349.824 228.36 349.808 228.371 349.8C226.521 347.176 223.712 347.106 222.93 347.106C221.734 347.106 220.663 347.526 219.763 347.879L219.763 347.879C219.111 348.134 218.548 348.355 218.093 348.355C217.59 348.355 217.013 348.125 216.37 347.868L216.37 347.868C215.559 347.543 214.641 347.176 213.629 347.176C210.216 347.176 206.748 349.977 206.748 355.257C206.748 358.549 208.029 362.018 209.615 364.25C210.984 366.152 212.175 367.7 213.881 367.7C214.691 367.7 215.284 367.451 215.908 367.189C216.6 366.898 217.329 366.592 218.433 366.592C219.549 366.592 220.215 366.88 220.858 367.157C221.456 367.415 222.033 367.665 222.933 367.665C224.798 367.665 226.025 365.994 227.199 364.321C228.516 362.42 229.068 360.554 229.084 360.467C228.977 360.431 225.402 359.005 225.402 354.974C225.402 351.729 227.839 350.146 228.302 349.846ZM223.407 341.086C223.407 342.477 222.804 343.868 221.951 344.87C221.045 345.981 219.479 346.807 218.233 346.807C218.09 346.807 217.948 346.788 217.86 346.771C217.843 346.704 217.808 346.492 217.808 346.28C217.808 344.87 218.537 343.479 219.319 342.599C220.315 341.456 221.967 340.592 223.355 340.54C223.391 340.698 223.407 340.894 223.407 341.086ZM292.956 349.8C292.945 349.808 292.922 349.824 292.888 349.846C292.425 350.146 289.988 351.729 289.988 354.974C289.988 359.005 293.563 360.431 293.67 360.467C293.653 360.554 293.102 362.42 291.785 364.321C290.61 365.994 289.384 367.665 287.518 367.665C286.619 367.665 286.042 367.415 285.443 367.157C284.801 366.88 284.134 366.592 283.019 366.592C281.915 366.592 281.185 366.898 280.493 367.189C279.87 367.451 279.276 367.7 278.467 367.7C276.76 367.7 275.57 366.152 274.201 364.25C272.615 362.018 271.334 358.549 271.334 355.257C271.334 349.977 274.802 347.176 278.215 347.176C279.226 347.176 280.144 347.543 280.956 347.868C281.599 348.125 282.175 348.355 282.679 348.355C283.134 348.355 283.696 348.134 284.349 347.879C285.249 347.526 286.319 347.106 287.516 347.106C288.298 347.106 291.107 347.176 292.956 349.8ZM286.536 344.87C287.389 343.868 287.993 342.477 287.993 341.086C287.993 340.894 287.977 340.698 287.941 340.54C286.553 340.592 284.901 341.456 283.905 342.599C283.123 343.479 282.393 344.87 282.393 346.28C282.393 346.492 282.429 346.704 282.445 346.771C282.533 346.788 282.676 346.807 282.818 346.807C284.064 346.807 285.631 345.981 286.536 344.87Z" fill="#3ADD85"/>
<rect x="187" y="121" width="126" height="258" rx="25" stroke="black" stroke-width="10"/>
</svg>
